<svg width="53" height="48" viewBox="0 0 53 48" fill="none" xmlns="http://www.w3.org/2000/svg">
<ellipse cx="23.8827" cy="23.8832" rx="23.8827" ry="23.8832" fill="#FFFBF3"/>
<path d="M36.2554 41.5537C36.7436 42.2509 37.7081 42.4242 38.3712 41.8907C40.8986 39.8571 42.9744 37.3102 44.4574 34.4121C46.1749 31.0558 47.0453 27.3303 46.9926 23.5605C46.94 19.7906 45.9659 16.0909 44.1554 12.7839C42.5921 9.92829 40.446 7.44037 37.8627 5.4781C37.185 4.96332 36.2257 5.16354 35.7572 5.87403V5.87403C35.2888 6.5845 35.4892 7.53562 36.1615 8.05731C38.3277 9.73808 40.1304 11.8493 41.4523 14.2639C43.0214 17.1299 43.8655 20.3363 43.9111 23.6035C43.9568 26.8707 43.2025 30.0994 41.714 33.0081C40.46 35.4587 38.7171 37.6194 36.5986 39.36C35.9411 39.9003 35.7673 40.8566 36.2554 41.5537V41.5537Z" fill="#5A67D8"/>
<path d="M32.72 36.5045C33.2084 37.2019 34.1749 37.3765 34.8251 36.8269C36.5353 35.381 37.9461 33.6071 38.9709 31.6044C40.2304 29.1431 40.8686 26.4111 40.83 23.6465C40.7914 20.882 40.0771 18.1689 38.7494 15.7437C37.6691 13.7704 36.2093 12.0365 34.4594 10.639C33.7942 10.1077 32.8329 10.3093 32.3642 11.02V11.02C31.8955 11.7308 32.0984 12.6807 32.7528 13.2253C34.0882 14.3367 35.2065 15.6923 36.0452 17.2243C37.1314 19.2083 37.7157 21.4279 37.7473 23.6896C37.7789 25.9512 37.2567 28.1863 36.2264 30.1999C35.4307 31.7547 34.3508 33.141 33.0469 34.2893C32.408 34.8519 32.2317 35.8071 32.72 36.5045V36.5045Z" fill="#5A67D8"/>
<path d="M31.5868 23.8831C31.5868 28.1381 28.1375 31.5874 23.8827 31.5874C19.6278 31.5874 16.1786 28.1381 16.1786 23.8831C16.1786 19.6282 19.6278 16.1789 23.8827 16.1789C28.1375 16.1789 31.5868 19.6282 31.5868 23.8831ZM19.2602 23.8831C19.2602 26.4361 21.3298 28.5057 23.8827 28.5057C26.4356 28.5057 28.5051 26.4361 28.5051 23.8831C28.5051 21.3302 26.4356 19.2606 23.8827 19.2606C21.3298 19.2606 19.2602 21.3302 19.2602 23.8831Z" fill="#5A67D8"/>
<path d="M16.1786 23.8832H19.2602V44.6847C19.2602 45.5356 18.5704 46.2255 17.7194 46.2255V46.2255C16.8684 46.2255 16.1786 45.5356 16.1786 44.6847V23.8832Z" fill="#5A67D8"/>
<rect x="46.9949" y="36.4437" width="1.56136" height="11.5564" rx="0.78068" fill="#38A169"/>
<path d="M52.0693 37.4646C52.0693 38.8383 50.9333 39.9519 49.5321 39.9519C48.1308 39.9519 46.9949 38.8383 46.9949 37.4646C46.9949 36.0909 48.1308 34.9773 49.5321 34.9773C50.9333 34.9773 52.0693 36.0909 52.0693 37.4646ZM48.556 37.4646C48.556 37.9931 48.993 38.4215 49.5321 38.4215C50.0711 38.4215 50.5081 37.9931 50.5081 37.4646C50.5081 36.9361 50.0711 36.5077 49.5321 36.5077C48.993 36.5077 48.556 36.9361 48.556 37.4646Z" fill="#38A169"/>
<path d="M52.85 41.2912C52.85 42.8762 51.5393 44.1611 49.9224 44.1611C48.3056 44.1611 46.9949 42.8762 46.9949 41.2912C46.9949 39.7061 48.3056 38.4212 49.9224 38.4212C51.5393 38.4212 52.85 39.7061 52.85 41.2912ZM48.5563 41.2912C48.5563 42.0308 49.1679 42.6305 49.9224 42.6305C50.6769 42.6305 51.2886 42.0308 51.2886 41.2912C51.2886 40.5515 50.6769 39.9519 49.9224 39.9519C49.1679 39.9519 48.5563 40.5515 48.5563 41.2912Z" fill="#38A169"/>
</svg>
